<svg xmlns="http://www.w3.org/2000/svg" version="1.1" xmlns:xlink="http://www.w3.org/1999/xlink" xmlns:svgjs="http://svgjs.dev/svgjs" width="54.9" height="54.9"><svg xmlns="http://www.w3.org/2000/svg" xmlns:xlink="http://www.w3.org/1999/xlink" version="1.1" id="SvgjsSvg1013" x="0px" y="0px" viewBox="0 0 54.9 54.9" style="enable-background:new 0 0 54.9 54.9;" xml:space="preserve"> <g> <path d="M7.5,41.2c-0.1-0.1-0.1-0.2-0.1-0.3V13.6c0-0.1,0-0.2,0.1-0.3c0.1-0.1,0.2-0.1,0.3-0.1h1.5c0.1,0,0.2,0,0.3,0.1 c0.1,0.1,0.1,0.2,0.1,0.3V41c0,0.1,0,0.2-0.1,0.3c-0.1,0.1-0.2,0.1-0.3,0.1H7.8C7.7,41.4,7.6,41.3,7.5,41.2z M11.9,28.1 c-0.1-0.1-0.1-0.2-0.1-0.3v-1.4c0-0.1,0-0.2,0.1-0.3C12,26,12.1,26,12.2,26h9.5c0.1,0,0.2,0,0.3,0.1c0.1,0.1,0.1,0.2,0.1,0.3v1.4 c0,0.1,0,0.2-0.1,0.3c-0.1,0.1-0.2,0.1-0.3,0.1h-9.5C12.1,28.2,12,28.1,11.9,28.1z M24.3,41.2c-0.1-0.1-0.1-0.2-0.1-0.3V13.6 c0-0.1,0-0.2,0.1-0.3c0.1-0.1,0.2-0.1,0.3-0.1h1.5c0.1,0,0.2,0,0.3,0.1c0.1,0.1,0.1,0.2,0.1,0.3V41c0,0.1,0,0.2-0.1,0.3 c-0.1,0.1-0.2,0.1-0.3,0.1h-1.5C24.5,41.4,24.4,41.3,24.3,41.2z"></path> <path d="M34.8,40.3c-1-0.7-1.8-1.7-2.4-2.9c-0.6-1.2-0.8-2.6-0.8-4.1c0-1.9,0.6-4,1.8-6.3l7-13.4c0.1-0.1,0.1-0.2,0.2-0.3 c0.1,0,0.2-0.1,0.3-0.1h1.5c0.1,0,0.2,0,0.3,0.1c0,0.1,0,0.2,0,0.2l-6.6,12.7c-0.7,1.3-1.2,2.5-1.7,3.7c-0.4,1.2-0.6,2.3-0.6,3.4 c0,1.6,0.4,3,1.2,4.1c0.8,1.1,1.9,1.8,3.3,2.1c0.2,0.1,0.4,0.2,0.4,0.5v1.3c0,0.1,0,0.2-0.1,0.3c-0.1,0.1-0.2,0.1-0.3,0.1 C37,41.5,35.8,41,34.8,40.3z M41.2,41.7c-0.1,0-0.2,0-0.2-0.1c-0.1-0.1-0.1-0.2-0.1-0.3V40c0-0.2,0.1-0.4,0.4-0.5 c1.4-0.3,2.5-1,3.3-2.1c0.8-1.1,1.2-2.5,1.2-4.1c0-1.2-0.2-2.3-0.7-3.3c-0.5-1-1.2-1.7-2.1-2.2C42,27.2,41,27,39.8,27 c-0.3,0-0.7,0-1.2,0.1h-0.1c-0.1,0-0.2,0-0.3-0.1c-0.1-0.1,0-0.2,0-0.3l0.5-1.1c0.1-0.2,0.3-0.4,0.5-0.5c0.2-0.1,0.6-0.1,1-0.1 c1.3,0,2.6,0.3,3.8,1c1.2,0.6,2.1,1.6,2.9,2.8c0.7,1.2,1.1,2.7,1.1,4.5c0,1.5-0.3,2.9-0.9,4.1c-0.6,1.2-1.4,2.2-2.4,2.9 c-1,0.7-2.2,1.2-3.5,1.4H41.2z"></path> </g> </svg><style>@media (prefers-color-scheme: light) { :root { filter: none; } }
@media (prefers-color-scheme: dark) { :root { filter: none; } }
</style></svg>